<svg width="62" height="71" viewBox="0 0 62 71" fill="none" xmlns="http://www.w3.org/2000/svg">
<path d="M57.7814 14.7658C57.7814 6.62391 51.1422 0 42.9816 0C34.821 0 28.1818 6.62391 28.1818 14.7658C28.1818 15.0073 28.2164 15.2833 28.2164 15.5248C28.1818 15.5248 28.1818 15.5248 28.1818 15.5248V15.4558L3.52705 0.68999C3.52705 0.68999 -0.345789 9.48737 7.74568 17.5603L0 14.7658C0 14.7658 0.691578 22.4937 10.5811 29.5316H2.80089C2.80089 29.5316 5.60178 35.155 12.6559 37.9495V39.3639L8.43726 40.0539C8.43726 40.0539 11.2381 42.8484 16.1829 44.2629L14.7652 47.7818L21.0931 47.1608L14.0736 67.4811C14.0736 67.4811 17.6007 65.3766 19.0184 62.5476L16.9091 70.9655C16.9091 70.9655 28.1818 61.8231 30.2911 51.9908L36.6191 47.6438C42.4283 44.9874 46.5086 39.1224 46.5086 32.2915C46.5086 31.2221 46.4049 30.1526 46.1974 29.1176C51.2805 27.9791 55.3608 24.2877 56.9861 19.4232L57.0552 19.6647L62 18.2502L57.7814 14.7658Z" fill="#63ACFC"/>
</svg>
